<svg viewBox="0 0 97 59" fill="none" xmlns="http://www.w3.org/2000/svg"><g clip-path="url(#a)"><path d="M12.56 0v3.83c-1.06 0-1.88.15-2.47.45-.6.3-.85.88-.77 1.76l.54 5.14a5.4 5.4 0 0 1-.43 3.15 4.2 4.2 0 0 1-1.93 1.85c-.86.41-1.88.71-3.05.88 1.24.19 2.3.5 3.15.9a3.96 3.96 0 0 1 1.88 1.82c.4.79.52 1.85.38 3.17l-.54 5.14c-.08.88.18 1.46.77 1.75.59.3 1.41.46 2.47.46v3.83c-3.2 0-5.45-.49-6.75-1.46-1.29-.97-1.81-2.62-1.57-4.97l.53-4.98c.09-.88-.06-1.57-.46-2.07-.38-.5-.95-.85-1.7-1.04a9.8 9.8 0 0 0-2.61-.32v-4.45c.97 0 1.84-.1 2.6-.3a3.2 3.2 0 0 0 1.71-1.06c.4-.5.55-1.2.46-2.08l-.53-4.94c-.25-2.4.27-4.06 1.57-5.01 1.3-.97 3.55-1.45 6.75-1.45Z" fill="url(#b)"/><path d="M27.63 4.51c2.88 0 5.05 1.11 6.5 3.34 1.48 2.22 2.22 5.31 2.22 9.28 0 3.98-.74 7.1-2.21 9.35-1.46 2.24-3.63 3.36-6.5 3.36-2.9 0-5.09-1.12-6.55-3.36-1.45-2.25-2.17-5.37-2.17-9.35 0-3.97.72-7.06 2.17-9.28 1.46-2.23 3.64-3.34 6.54-3.34Zm0 3.99c-1.23 0-2.12.66-2.7 1.98-.56 1.31-.85 3.53-.85 6.65a55.4 55.4 0 0 0 .21 4.84l5.88-12.3a2.16 2.16 0 0 0-1.04-.91 3.8 3.8 0 0 0-1.5-.26Zm3.52 8.63c0-1.33-.03-2.46-.09-3.37l-5.55 11.47c.26.24.56.41.9.5.36.1.77.14 1.22.14.83 0 1.5-.27 2-.83.53-.56.9-1.48 1.15-2.75.24-1.3.37-3 .37-5.16Z" fill="url(#c)"/><path d="M48.5 4.51c2.88 0 5.04 1.11 6.5 3.34 1.48 2.22 2.21 5.31 2.21 9.28 0 3.98-.73 7.1-2.2 9.35-1.47 2.24-3.63 3.36-6.51 3.36-2.9 0-5.08-1.12-6.54-3.36-1.45-2.25-2.17-5.37-2.17-9.35 0-3.97.72-7.06 2.17-9.28 1.46-2.23 3.64-3.34 6.54-3.34Zm0 3.99c-1.23 0-2.13.66-2.7 1.98-.56 1.31-.85 3.53-.85 6.65a43.81 43.81 0 0 0 .21 4.84l5.88-12.3a2.16 2.16 0 0 0-1.04-.91 3.8 3.8 0 0 0-1.5-.26Zm3.51 8.63c0-1.33-.03-2.46-.08-3.37l-5.55 11.47a2 2 0 0 0 .9.5c.36.1.77.14 1.22.14.82 0 1.49-.27 2-.83.52-.56.9-1.48 1.15-2.75.24-1.3.36-3 .36-5.16Z" fill="url(#d)"/><path d="m68.11 29.8-5.21-1.61 8.99-18.93h-10.6v-4.14h16.16v3.73l-9.34 20.96Z" fill="url(#e)"/><path d="M84.44 0c3.2 0 5.45.48 6.73 1.45 1.3.96 1.83 2.62 1.59 4.98l-.53 4.97c-.09.89.06 1.58.46 2.08s.96.85 1.7 1.06c.75.2 1.62.3 2.61.3v4.45c-.97 0-1.84.1-2.6.32-.75.2-1.32.54-1.71 1.04-.4.5-.55 1.2-.46 2.07l.53 4.95c.26 2.38-.26 4.05-1.57 5.01-1.3.97-3.55 1.45-6.75 1.45v-3.83c1.07 0 1.9-.15 2.49-.46.6-.29.84-.87.75-1.75l-.54-5.14c-.14-1.31 0-2.36.42-3.15a4.2 4.2 0 0 1 1.94-1.83c.87-.43 1.9-.73 3.06-.9-1.24-.2-2.3-.5-3.16-.91a3.96 3.96 0 0 1-1.88-1.81 5.8 5.8 0 0 1-.38-3.17l.54-5.14c.09-.88-.17-1.47-.77-1.76a5.53 5.53 0 0 0-2.47-.45v-3.83Z" fill="url(#f)"/><path d="M12.27 42.16c.97 0 1.75.24 2.34.72a4.1 4.1 0 0 1 1.3 2.04c.27.88.41 1.92.41 3.12 0 1.15-.16 2.17-.5 3.06-.33.9-.81 1.6-1.45 2.12-.63.5-1.4.76-2.3.76a3.33 3.33 0 0 1-2.63-1.16v5.09l-3.3.34v-15.72h2.92l.15 1.24c.45-.58.94-.99 1.48-1.23a3.72 3.72 0 0 1 1.58-.38Zm-1.02 2.44c-.38 0-.72.11-1.01.34-.3.23-.56.54-.8.94v4.68c.23.34.47.6.72.75.25.16.56.24.9.24.59 0 1.04-.26 1.37-.79a5.4 5.4 0 0 0 .5-2.67c0-.92-.07-1.63-.2-2.14-.14-.5-.33-.86-.58-1.05a1.4 1.4 0 0 0-.9-.3Z" fill="url(#g)"/><path d="M27.99 50.43c0 .41.05.72.17.9.11.2.3.34.56.43l-.68 2.18c-.65-.07-1.2-.2-1.66-.43a2.5 2.5 0 0 1-1.05-1.04c-.43.51-.97.9-1.63 1.14a5.8 5.8 0 0 1-2.03.37 3.8 3.8 0 0 1-2.73-.97 3.35 3.35 0 0 1-1.01-2.52c0-1.2.47-2.14 1.4-2.8.95-.65 2.28-.97 4-.97h1.49v-.42c0-1.14-.73-1.7-2.2-1.7a11.3 11.3 0 0 0-3.04.58l-.75-2.2a12.6 12.6 0 0 1 4.32-.82c1.64 0 2.86.34 3.65 1.02.8.66 1.19 1.63 1.19 2.9v4.35Zm-5.18 1.19a2.37 2.37 0 0 0 2-1.23v-1.8h-.8c-.93 0-1.6.15-2.03.44-.43.27-.65.69-.65 1.23 0 .42.13.76.39 1s.63.36 1.1.36Z" fill="url(#h)"/><path d="m41.64 42.53-3.7 11.1h-3.88l-3.74-11.1h3.56l2.16 8.56 2.26-8.56h3.34Z" fill="url(#i)"/><path d="M53.03 50.43c0 .41.05.72.17.9.11.2.3.34.56.43l-.68 2.18c-.65-.07-1.2-.2-1.66-.43a2.5 2.5 0 0 1-1.05-1.04c-.43.51-.97.9-1.63 1.14a5.8 5.8 0 0 1-2.03.37 3.8 3.8 0 0 1-2.73-.97 3.35 3.35 0 0 1-1.01-2.52c0-1.2.47-2.14 1.4-2.8.95-.65 2.28-.97 4-.97h1.49v-.42c0-1.14-.73-1.7-2.2-1.7a11.3 11.3 0 0 0-3.04.58l-.75-2.2a12.59 12.59 0 0 1 4.32-.82c1.65 0 2.86.34 3.65 1.02.8.66 1.19 1.63 1.19 2.9v4.35Zm-5.18 1.19a2.37 2.37 0 0 0 2-1.23v-1.8h-.8c-.93 0-1.6.15-2.03.44-.43.27-.65.69-.65 1.23 0 .42.13.76.39 1s.63.36 1.1.36Z" fill="url(#j)"/><path d="M56.22 53.62v-11.1h2.88l.23 1.3a5.2 5.2 0 0 1 1.56-1.25c.55-.27 1.18-.4 1.88-.4.95 0 1.7.28 2.24.86.54.58.81 1.4.81 2.44v8.15h-3.3v-7.2c0-.68-.07-1.15-.23-1.42-.14-.27-.42-.4-.83-.4-.35 0-.68.1-1 .33a4.7 4.7 0 0 0-.94.93v7.76h-3.3Z" fill="url(#k)"/><path d="M76.93 42.16c.79 0 1.37.26 1.74.78.39.5.58 1.33.58 2.47v8.21h-2.83v-7.83c0-.4-.04-.67-.11-.83-.07-.16-.22-.24-.44-.24-.18 0-.36.05-.55.16-.18.1-.38.28-.6.56v8.18h-2.32v-7.83c0-.4-.04-.67-.11-.83-.07-.16-.22-.24-.44-.24-.17 0-.36.05-.54.16a2 2 0 0 0-.6.56v8.18h-2.88v-11.1h2.42l.22 1.08c.35-.47.7-.83 1.06-1.07a2.1 2.1 0 0 1 1.26-.37c.42 0 .77.11 1.06.33.3.2.51.54.64.99.33-.4.7-.7 1.1-.95.4-.25.85-.37 1.34-.37Z" fill="url(#l)"/><path d="m91.1 40.75.77 2.43c-.39.15-.84.26-1.36.33a14 14 0 0 1-1.83.1c.7.3 1.22.68 1.59 1.12.36.44.55 1.02.55 1.74 0 .71-.2 1.35-.58 1.92-.38.56-.92 1-1.62 1.31a6.45 6.45 0 0 1-3.78.36.64.64 0 0 0-.27.27.77.77 0 0 0-.1.37c0 .17.07.33.21.47.15.14.49.2 1.01.2h1.82c.86 0 1.6.15 2.23.42a3.5 3.5 0 0 1 1.48 1.14 3.06 3.06 0 0 1-.97 4.34c-1 .65-2.48.98-4.44.98a9.75 9.75 0 0 1-3.3-.44 2.93 2.93 0 0 1-1.62-1.23 3.78 3.78 0 0 1-.44-1.9h2.92c0 .33.06.59.19.8.13.2.37.35.74.45.36.1.9.15 1.6.15.7 0 1.23-.06 1.6-.17.37-.11.62-.26.75-.46.14-.19.21-.4.21-.64a.96.96 0 0 0-.39-.79c-.25-.2-.66-.3-1.22-.3h-1.76c-1.2 0-2.07-.22-2.61-.66a1.97 1.97 0 0 1-.81-1.56c0-.4.1-.8.32-1.17.22-.37.53-.68.93-.93a3.78 3.78 0 0 1-1.53-1.32 3.56 3.56 0 0 1-.45-1.85c0-.84.2-1.56.63-2.16a4.18 4.18 0 0 1 1.76-1.4c.75-.32 1.6-.49 2.56-.49a8.04 8.04 0 0 0 3.8-.7c.5-.23.97-.47 1.41-.73Zm-5.12 3.57c-.53 0-.94.17-1.25.5-.3.33-.45.79-.45 1.36 0 .62.15 1.09.47 1.41.3.33.72.5 1.23.5 1.12 0 1.69-.65 1.69-1.95 0-1.2-.57-1.82-1.7-1.82Z" fill="url(#m)"/></g><defs><linearGradient id="b" x1="-2.05" y1="36.755" x2="99.972" y2=".68" gradientUnits="userSpaceOnUse"><stop stop-color="#00C0FD"/><stop offset="1" stop-color="#E70FAA"/></linearGradient><linearGradient id="c" x1="-2.05" y1="36.755" x2="99.972" y2=".68" gradientUnits="userSpaceOnUse"><stop stop-color="#00C0FD"/><stop offset="1" stop-color="#E70FAA"/></linearGradient><linearGradient id="d" x1="-2.05" y1="36.755" x2="99.972" y2=".68" gradientUnits="userSpaceOnUse"><stop stop-color="#00C0FD"/><stop offset="1" stop-color="#E70FAA"/></linearGradient><linearGradient id="e" x1="-2.05" y1="36.755" x2="99.972" y2=".68" gradientUnits="userSpaceOnUse"><stop stop-color="#00C0FD"/><stop offset="1" stop-color="#E70FAA"/></linearGradient><linearGradient id="f" x1="-2.05" y1="36.755" x2="99.972" y2=".68" gradientUnits="userSpaceOnUse"><stop stop-color="#00C0FD"/><stop offset="1" stop-color="#E70FAA"/></linearGradient><linearGradient id="g" x1="-.244" y1="59.345" x2="93.638" y2="39.507" gradientUnits="userSpaceOnUse"><stop stop-color="#13B0F5"/><stop offset="1" stop-color="#CA24B4"/></linearGradient><linearGradient id="h" x1="-.244" y1="59.345" x2="93.638" y2="39.507" gradientUnits="userSpaceOnUse"><stop stop-color="#13B0F5"/><stop offset="1" stop-color="#CA24B4"/></linearGradient><linearGradient id="i" x1="-.244" y1="59.345" x2="93.638" y2="39.507" gradientUnits="userSpaceOnUse"><stop stop-color="#13B0F5"/><stop offset="1" stop-color="#CA24B4"/></linearGradient><linearGradient id="j" x1="-.244" y1="59.345" x2="93.638" y2="39.507" gradientUnits="userSpaceOnUse"><stop stop-color="#13B0F5"/><stop offset="1" stop-color="#CA24B4"/></linearGradient><linearGradient id="k" x1="-.244" y1="59.345" x2="93.638" y2="39.507" gradientUnits="userSpaceOnUse"><stop stop-color="#13B0F5"/><stop offset="1" stop-color="#CA24B4"/></linearGradient><linearGradient id="l" x1="-.244" y1="59.345" x2="93.638" y2="39.507" gradientUnits="userSpaceOnUse"><stop stop-color="#13B0F5"/><stop offset="1" stop-color="#CA24B4"/></linearGradient><linearGradient id="m" x1="-.244" y1="59.345" x2="93.638" y2="39.507" gradientUnits="userSpaceOnUse"><stop stop-color="#13B0F5"/><stop offset="1" stop-color="#CA24B4"/></linearGradient><clipPath id="a"><path fill="#fff" d="M0 0h97v59h-97z"/></clipPath></defs></svg>