<svg viewBox="0 0 120 119" fill="none" xmlns="http://www.w3.org/2000/svg"><path d="m22.13 101.15-8.42-93.71h92.58l-8.43 93.7-37.92 10.42-37.8-10.4Z" fill="#1572B6"/><path d="m60 103.6 30.64-8.43 7.2-80.07h-37.84v88.5Z" fill="#33A9DC"/><path d="M60 49.05h15.34l1.05-11.77h-16.39v-11.5h29.06l-.28 3.1-2.84 31.67h-25.94v-11.5Z" fill="#fff"/><path d="m60.07 78.9-.05.02-12.9-3.46-.83-9.17h-11.64l1.62 18.05 23.74 6.54.06-.02v-11.96Z" fill="#EBEBEB"/><path d="m74.35 60.06-1.4 15.4-12.92 3.45v11.96l23.76-6.53.18-1.94 2.01-22.34h-11.63Z" fill="#fff"/><path d="M60.04 25.79v11.5h-28l-.23-2.59-.53-5.83-.28-3.08h29.04Zm-.04 23.26v11.5h-12.75l-.23-2.59-.52-5.82-.28-3.09h13.78Z" fill="#EBEBEB"/></svg>