<svg viewBox="0 0 105 105" fill="none" xmlns="http://www.w3.org/2000/svg"><g clip-path="url(#a)"><path d="m103.02 47.82-45.84-45.84a6.76 6.76 0 0 0-9.57 0l-9.52 9.52 12.08 12.08a8.03 8.03 0 0 1 10.17 10.23l11.64 11.64a8.03 8.03 0 0 1 8.31 13.29 8.05 8.05 0 0 1-13.13-8.75l-10.86-10.85v28.56a8.05 8.05 0 1 1-6.62-.23v-28.83a8.04 8.04 0 0 1-4.37-10.55l-11.9-11.91-31.43 31.43a6.76 6.76 0 0 0 0 9.57l45.85 45.84a6.76 6.76 0 0 0 9.56 0l45.63-45.63a6.77 6.77 0 0 0 0-9.57" fill="#DE4C36"/></g><defs><clipPath id="a"><path fill="#fff" d="M0 0h105v105h-105z"/></clipPath></defs></svg>