<svg viewBox="0 0 120 120" fill="none" xmlns="http://www.w3.org/2000/svg"><path d="M7.5 7.5h105v105h-105v-105Z" fill="#F5DE19"/><path d="M78.03 89.53a10.75 10.75 0 0 0 9.75 6c4.1 0 6.7-2.04 6.7-4.87 0-3.38-2.68-4.59-7.18-6.55l-2.47-1.06c-7.12-3.04-11.85-6.83-11.85-14.87 0-7.4 5.63-13.03 14.45-13.03a14.58 14.58 0 0 1 14.03 7.9l-7.71 4.93a6.7 6.7 0 0 0-6.33-4.23 4.3 4.3 0 0 0-4.73 4.23c0 2.96 1.84 4.16 6.07 6l2.47 1.06c8.38 3.6 13.13 7.26 13.13 15.5 0 8.88-6.98 13.75-16.36 13.75a18.96 18.96 0 0 1-17.98-10.1l8.01-4.66Zm-34.85.86c1.55 2.75 2.96 5.07 6.35 5.07 3.24 0 5.28-1.27 5.28-6.2v-33.55h9.87v33.68c0 10.22-6 14.87-14.73 14.87a15.32 15.32 0 0 1-14.8-9l8.03-4.87Z" fill="#000"/></svg>