<svg viewBox="0 0 113 101" fill="none" xmlns="http://www.w3.org/2000/svg"><g clip-path="url(#a)"><path d="M92.9 32.7c-1.2-.41-2.41-.8-3.63-1.15.2-.84.4-1.67.56-2.49 2.75-13.41.95-24.22-5.2-27.78-5.89-3.4-15.53.15-25.26 8.65-.96.84-1.9 1.7-2.82 2.6a69.12 69.12 0 0 0-1.87-1.74c-10.2-9.1-20.43-12.93-26.57-9.36-5.9 3.42-7.63 13.58-5.16 26.3.25 1.25.53 2.5.84 3.75a74.7 74.7 0 0 0-4.18 1.32c-11.97 4.19-19.6 10.75-19.6 17.55 0 7.03 8.2 14.08 20.66 18.35 1 .35 2.02.67 3.05.96a81.3 81.3 0 0 0-.89 4.05c-2.36 12.5-.51 22.41 5.36 25.81 6.07 3.51 16.25-.1 26.16-8.8.8-.7 1.6-1.43 2.36-2.17.99.96 2 1.89 3.05 2.8 9.6 8.29 19.09 11.64 24.96 8.23 6.06-3.52 8.03-14.18 5.47-27.14-.2-1.02-.43-2.03-.68-3.04.72-.2 1.42-.43 2.1-.65 12.96-4.31 21.39-11.28 21.39-18.4 0-6.83-7.9-13.43-20.1-17.65Zm-2.8 31.45-1.9.6a113.9 113.9 0 0 0-5.72-14.37c2.25-4.88 4.1-9.65 5.5-14.16 1.15.34 2.27.69 3.35 1.06 10.46 3.62 16.84 8.96 16.84 13.07 0 4.39-6.89 10.08-18.07 13.8Zm-4.64 9.23c1.13 5.73 1.29 10.91.54 14.96-.67 3.64-2.03 6.07-3.7 7.04-3.56 2.07-11.18-.62-19.39-7.7a69.3 69.3 0 0 1-2.84-2.61c3.18-3.5 6.37-7.56 9.47-12.07 5.46-.49 10.62-1.28 15.3-2.37.23.91.43 1.83.62 2.75Zm-46.93 21.65c-3.48 1.23-6.25 1.26-7.93.3-3.56-2.07-5.04-10.03-3.02-20.71.24-1.27.51-2.52.82-3.77 4.63 1.03 9.75 1.77 15.23 2.21a117.9 117.9 0 0 0 9.7 12.03c-.7.68-1.42 1.34-2.16 1.99-4.38 3.85-8.77 6.57-12.64 7.95Zm-16.3-30.91c-5.51-1.89-10.06-4.35-13.18-7.03-2.8-2.4-4.22-4.8-4.22-6.74 0-4.13 6.14-9.4 16.37-12.97a61.4 61.4 0 0 1 3.89-1.23c1.41 4.61 3.26 9.44 5.5 14.32a118.27 118.27 0 0 0-5.57 14.53c-.94-.27-1.87-.56-2.8-.88Zm5.46-37.33c-2.12-10.89-.71-19.1 2.84-21.17 3.78-2.2 12.14.94 20.95 8.8.57.5 1.14 1.03 1.7 1.56a116.04 116.04 0 0 0-9.63 11.96c-5.32.5-10.4 1.29-15.08 2.35a71.1 71.1 0 0 1-.78-3.5Zm48.74 12.08c-1.1-1.91-2.25-3.8-3.44-5.67 3.6.46 7.06 1.07 10.3 1.81a106.5 106.5 0 0 1-3.6 9.77 169.04 169.04 0 0 0-3.26-5.9Zm-19.88-19.43c2.23 2.43 4.46 5.13 6.65 8.06-4.45-.21-8.9-.21-13.35 0 2.2-2.9 4.44-5.6 6.7-8.06Zm-20 19.47c-1.1 1.93-2.17 3.88-3.19 5.86-1.4-3.34-2.6-6.63-3.59-9.81 3.22-.73 6.66-1.32 10.24-1.77a144.8 144.8 0 0 0-3.46 5.72Zm3.57 28.95c-3.7-.42-7.2-.98-10.42-1.68 1-3.24 2.23-6.6 3.67-10.01a142.45 142.45 0 0 0 6.75 11.69Zm16.57 13.74a108.55 108.55 0 0 1-6.8-8.16 168.47 168.47 0 0 0 13.43-.03c-2.2 3-4.42 5.75-6.63 8.2Zm23.04-25.6a103 103 0 0 1 3.79 9.97c-3.28.75-6.81 1.35-10.54 1.8a169.48 169.48 0 0 0 6.75-11.78Zm-7.46 3.58a158.94 158.94 0 0 1-5.42 8.78 157.76 157.76 0 0 1-20.58.04 136.33 136.33 0 0 1-10.34-17.93 136.17 136.17 0 0 1 10.28-17.9 135.42 135.42 0 0 1 20.6 0 159.07 159.07 0 0 1 10.32 17.82 151.68 151.68 0 0 1-4.86 9.19Zm9.96-54.1c3.78 2.2 5.25 11.02 2.87 22.6-.15.74-.32 1.5-.5 2.26-4.7-1.09-9.78-1.9-15.11-2.4a113.7 113.7 0 0 0-9.55-11.96c.84-.82 1.7-1.62 2.6-2.4 8.34-7.28 16.13-10.16 19.69-8.1Zm-25.73 34.75a10.1 10.1 0 0 1 10.09 10.12 10.1 10.1 0 0 1-10.09 10.13 10.1 10.1 0 0 1-10.09-10.13 10.1 10.1 0 0 1 10.09-10.12Z" fill="#00D8FF"/></g><defs><clipPath id="a"><path fill="#fff" d="M0 0h113v101h-113z"/></clipPath></defs></svg>