<svg viewBox="0 0 112 112" fill="none" xmlns="http://www.w3.org/2000/svg"><path d="m101.53 17.6-20.18-9.71a6.1 6.1 0 0 0-6.96 1.18l-66.06 60.23a4.08 4.08 0 0 0-.01 6.03l5.4 4.9a4.08 4.08 0 0 0 5.2.23l79.58-60.33a4.05 4.05 0 0 1 6.5 3.22v-.23a6.12 6.12 0 0 0-3.47-5.52Z" fill="#0065A9"/><path d="m101.53 94.4-20.18 9.71a6.11 6.11 0 0 1-6.96-1.18l-66.06-60.23a4.08 4.08 0 0 1-.01-6.03l5.4-4.9a4.08 4.08 0 0 1 5.21-.23l79.57 60.34a4.05 4.05 0 0 0 6.5-3.23v.25a6.13 6.13 0 0 1-3.47 5.5Z" fill="#007ACC"/><path d="M81.35 104.11a6.11 6.11 0 0 1-6.96-1.18 3.59 3.59 0 0 0 6.11-2.54v-88.78a3.58 3.58 0 0 0-6.12-2.54 6.1 6.1 0 0 1 6.96-1.18l20.18 9.7a6.11 6.11 0 0 1 3.48 5.51v65.8a6.12 6.12 0 0 1-3.47 5.52l-20.18 9.7Z" fill="#1F9CF0"/></svg>