<svg viewBox="0 0 88 88" fill="none" xmlns="http://www.w3.org/2000/svg"><path fill-rule="evenodd" clip-rule="evenodd" d="M44 0a43.99 43.99 0 0 0-13.91 85.75c2.2.38 3.02-.94 3.02-2.1 0-1.04-.05-4.5-.05-8.19-11.06 2.04-13.92-2.7-14.8-5.17-.5-1.27-2.64-5.17-4.51-6.22-1.54-.82-3.74-2.85-.05-2.91 3.46-.05 5.94 3.19 6.76 4.51 3.96 6.66 10.29 4.78 12.81 3.63.39-2.86 1.54-4.78 2.81-5.88-9.79-1.1-20.02-4.9-20.02-21.73 0-4.78 1.7-8.74 4.51-11.82-.44-1.1-1.98-5.62.44-11.67 0 0 3.68-1.15 12.1 4.52a40.83 40.83 0 0 1 11-1.49c3.74 0 7.48.5 11 1.48 8.41-5.71 12.1-4.5 12.1-4.5 2.42 6.04.88 10.55.44 11.65a17.02 17.02 0 0 1 4.51 11.83c0 16.89-10.28 20.63-20.07 21.73 1.59 1.37 2.96 4.01 2.96 8.14 0 5.88-.05 10.61-.05 12.1 0 1.15.83 2.53 3.02 2.09a44.07 44.07 0 0 0 29.98-41.75c0-24.31-19.69-44-44-44Z" fill="#000"/></svg>