<svg viewBox="0 0 120 120" fill="none" xmlns="http://www.w3.org/2000/svg"><path d="m22.13 102-8.42-94.5h92.58l-8.43 94.49-37.92 10.51-37.8-10.5Z" fill="#E44F26"/><path d="m60 104.47 30.64-8.5 7.2-80.74h-37.84v89.24Z" fill="#F1662A"/><path d="M60 50.28h-15.34l-1.05-11.87h16.39v-11.6h-29.06l.27 3.12 2.85 31.94h25.94v-11.6Zm0 30.1-.05.01-12.91-3.48-.82-9.24h-11.64l1.62 18.19 23.75 6.6.05-.02v-12.06Z" fill="#EBEBEB"/><path d="M59.96 50.28v11.59h14.27l-1.34 15.03-12.93 3.49v12.06l23.76-6.59.17-1.96 2.73-30.51.28-3.11h-26.94Zm0-23.46v11.59h28l.23-2.6.53-5.88.28-3.11h-29.04Z" fill="#fff"/></svg>