<svg viewBox="0 0 105 100" fill="none" xmlns="http://www.w3.org/2000/svg"><path d="M72.7 69.56a7.5 7.5 0 0 0-.8-14.95h-.27a7.47 7.47 0 0 0-5.07 12.68c-4.54 8.95-11.49 15.5-21.9 20.96a36.1 36.1 0 0 1-21.76 4.14c-6.01-.8-10.68-3.47-13.62-7.87-4.27-6.55-4.67-13.62-1.07-20.7a31.43 31.43 0 0 1 9.08-10.68 72.01 72.01 0 0 1-1.74-6.8c-19.36 14.01-17.35 32.97-11.48 41.91 4.4 6.68 13.35 10.82 23.23 10.82 2.67 0 5.34-.27 8.01-.93 17.1-3.34 30.04-13.49 37.39-28.58Zm23.5-16.55c-10.15-11.89-25.1-18.43-42.2-18.43h-2.13c-1.2-2.4-3.74-4-6.54-4h-.27a7.47 7.47 0 0 0 .27 14.95h.26c2.94-.13 5.48-2 6.55-4.54h2.4a50.89 50.89 0 0 1 28.44 8.68c6.67 4.4 11.48 10.15 14.15 17.09 2.27 5.6 2.14 11.08-.27 15.75-3.74 7.08-10.01 10.95-18.29 10.95-5.34 0-10.41-1.6-13.08-2.8a78.91 78.91 0 0 1-6.01 4.8c5.74 2.68 11.62 4.14 17.22 4.14 12.82 0 22.3-7.07 25.9-14.15 3.88-7.74 3.6-21.1-6.4-32.44Zm-67.83 18.82a7.5 7.5 0 0 0 7.48 7.21h.26a7.47 7.47 0 0 0-.26-14.95h-.27c-.27 0-.67 0-.93.13a48.92 48.92 0 0 1-6.95-29.64c.54-8.01 3.2-14.95 7.88-20.7 3.87-4.93 11.35-7.34 16.42-7.47 14.15-.27 20.16 17.36 20.56 24.43a90.3 90.3 0 0 1 6.68 2c-1.6-21.62-14.95-32.84-27.77-32.84-12.02 0-23.1 8.68-27.5 21.5-6.15 17.09-2.14 33.5 5.34 46.46a6 6 0 0 0-.94 3.87Z" fill="#764ABC"/></svg>