<svg viewBox="0 0 117 87" fill="none" xmlns="http://www.w3.org/2000/svg"><g clip-path="url(#a)"><path d="M100.67 50.08c-4.07.02-7.6.99-10.57 2.43-1.08-2.14-2.17-4.04-2.36-5.43-.22-1.63-.47-2.62-.22-4.57.26-1.94 1.41-4.71 1.39-4.92-.02-.21-.26-1.2-2.6-1.23-2.34-.02-4.37.45-4.6 1.06-.24.61-.68 2-.98 3.44-.4 2.12-4.7 9.66-7.14 13.61-.8-1.54-1.47-2.9-1.62-3.97-.21-1.63-.47-2.62-.21-4.56.25-1.95 1.4-4.72 1.38-4.93-.02-.2-.26-1.2-2.6-1.22-2.34-.02-4.37.44-4.6 1.05-.24.62-.5 2.05-.98 3.45-.5 1.4-6.18 13.98-7.67 17.24a96.97 96.97 0 0 1-1.9 3.9s-.02.07-.09.18c-.2.4-.42.8-.64 1.2v.02c-.32.57-.66 1.1-.83 1.1-.12 0-.36-1.52.05-3.6.85-4.36 2.87-11.17 2.85-11.4 0-.13.38-1.31-1.32-1.92-1.66-.62-2.26.4-2.4.4-.16 0-.26.36-.26.36s1.85-7.65-3.54-7.65c-3.37 0-8.01 3.65-10.32 6.95l-7.84 4.25c-1.25.7-2.55 1.4-3.77 2.05-.09-.09-.17-.2-.26-.28-6.52-6.9-18.58-11.79-18.07-21.06.2-3.39 1.37-12.26 23.17-23.04 17.94-8.76 32.22-6.33 34.7-.95 3.53 7.7-7.66 21.98-26.2 24.05-7.07.78-10.78-1.92-11.72-2.94-.98-1.05-1.13-1.12-1.5-.9-.59.31-.2 1.26 0 1.81.56 1.44 2.84 3.97 6.7 5.22 3.4 1.1 11.7 1.71 21.74-2.13 11.23-4.32 20-16.3 17.43-26.33-2.58-10.19-19.63-13.55-35.76-7.86-9.59 3.38-19.99 8.7-27.47 15.63-8.89 8.24-10.3 15.4-9.72 18.4 2.07 10.66 16.88 17.59 22.8 22.72l-.8.45c-2.97 1.45-14.26 7.3-17.07 13.5-3.2 7.01.5 12.04 2.96 12.72 7.6 2.09 15.43-1.67 19.62-7.88 4.2-6.22 3.7-14.29 1.75-17.99a.42.42 0 0 0-.08-.12l2.32-1.35a119.8 119.8 0 0 1 4.28-2.4 27.62 27.62 0 0 0-1.51 7.7c-.32 3.97 1.32 9.13 3.47 11.15.96.9 2.1.91 2.82.91 2.51 0 3.64-2.07 4.9-4.52 1.53-3 2.92-6.48 2.92-6.48s-1.73 9.42 2.96 9.42c1.7 0 3.43-2.2 4.2-3.32v.02l.13-.2.27-.45v-.04c.68-1.19 2.22-3.87 4.5-8.33 2.94-5.75 5.77-12.93 5.77-12.93s.26 1.75 1.13 4.67c.52 1.71 1.58 3.6 2.43 5.4-.68.96-1.1 1.49-1.1 1.49l.02.02c-.56.72-1.15 1.5-1.82 2.26-2.32 2.75-5.09 5.9-5.47 6.8-.45 1.08-.34 1.86.51 2.5.62.46 1.73.52 2.86.46 2.08-.15 3.55-.65 4.28-.97a14.5 14.5 0 0 0 3.68-1.92 8.16 8.16 0 0 0 3.54-7.2 14.45 14.45 0 0 0-1.34-5.1c.21-.3.4-.6.62-.89a96.62 96.62 0 0 0 6.4-10.94s.25 1.75 1.12 4.67c.43 1.48 1.3 3.08 2.07 4.64-3.4 2.73-5.48 5.9-6.23 7.97-1.34 3.85-.3 5.58 1.69 5.98.9.19 2.17-.23 3.11-.63a14.2 14.2 0 0 0 3.94-2.01c2.28-1.67 4.48-4 4.35-7.14a13.4 13.4 0 0 0-.98-4.23c2.88-1.18 6.58-1.84 11.31-1.29 10.15 1.19 12.15 7.46 11.77 10.1-.39 2.64-2.52 4.08-3.22 4.52-.7.45-.94.6-.87.91.08.47.42.45 1.02.36.83-.15 5.33-2.13 5.52-7 .32-6.2-5.65-12.99-16.2-12.92Zm-78.25 26.15c-3.37 3.64-8.05 5.01-10.08 3.85-2.17-1.25-1.32-6.61 2.81-10.46a53.62 53.62 0 0 1 7.91-5.85l2.09-1.25.23-.13.52-.31c1.5 5.5.06 10.33-3.48 14.15Zm24.5-16.52c-1.16 2.83-3.61 10.08-5.1 9.68-1.28-.34-2.07-5.83-.26-11.26a25.5 25.5 0 0 1 3.98-7.25c1.84-2.03 3.86-2.7 4.35-1.88.62 1.08-2.24 8.94-2.96 10.71Zm20.23 9.6c-.49.25-.96.42-1.17.29-.15-.08.21-.42.21-.42s2.54-2.7 3.54-3.93c.58-.72 1.26-1.57 1.98-2.52v.28c0 3.23-3.15 5.4-4.56 6.3Zm15.6-3.53c-.36-.26-.3-1.1.92-3.74a14.09 14.09 0 0 1 3.47-4.44c.21.67.36 1.33.34 1.94-.02 4.08-2.96 5.6-4.73 6.24Z" fill="#CD6799"/></g><defs><clipPath id="a"><path fill="#fff" d="M0 0h117v87h-117z"/></clipPath></defs></svg>