<svg xmlns="http://www.w3.org/2000/svg"><style>:root svg:not(:target){display:none}</style><svg viewBox="0 0 45 66" fill="none" id="sprite-adress"><path clip-rule="evenodd" d="M22.33 65.16c1.53 0 21.34-30.89 21.34-42.67a21.33 21.33 0 0 0-42.67 0c0 11.78 19.8 42.67 21.33 42.67Zm6.1-42.67a6.1 6.1 0 1 1-12.2 0 6.1 6.1 0 0 1 12.2 0Z" stroke="#80B840" stroke-width="2"></path></svg><svg viewBox="0 0 20 20" fill="none" id="sprite-chain"><path d="M11.29 8.71a3.64 3.64 0 0 0-5.15 0l-2.57 2.58a3.64 3.64 0 0 0 5.14 5.14l1.29-1.28" stroke="#000" stroke-width="1.667" stroke-linecap="round" stroke-linejoin="round"></path><path d="M8.71 11.29a3.64 3.64 0 0 0 5.15 0l2.57-2.58a3.64 3.64 0 0 0-5.14-5.14l-1.29 1.28" stroke="#000" stroke-width="1.667" stroke-linecap="round" stroke-linejoin="round"></path></svg><svg viewBox="0 0 32 32" id="sprite-github"><path fill-rule="evenodd" clip-rule="evenodd" d="M15 0a15 15 0 0 0-4.74 29.23c.75.13 1.03-.32 1.03-.71l-.02-2.8c-3.77.7-4.74-.91-5.04-1.76-.17-.43-.9-1.76-1.54-2.12-.53-.28-1.28-.97-.02-.99 1.18-.02 2.02 1.09 2.3 1.54 1.35 2.27 3.51 1.63 4.37 1.23.13-.97.53-1.63.96-2-3.34-.38-6.83-1.67-6.83-7.4 0-1.64.59-2.99 1.54-4.04a5.39 5.39 0 0 1 .15-3.97s1.26-.4 4.13 1.53a13.92 13.92 0 0 1 7.5 0c2.87-1.95 4.12-1.53 4.12-1.53.83 2.06.3 3.6.15 3.97a5.8 5.8 0 0 1 1.54 4.03c0 5.76-3.5 7.03-6.84 7.4.54.48 1 1.38 1 2.78l-.01 4.13c0 .4.28.86 1.03.71a15.03 15.03 0 0 0 10.22-14.23 15 15 0 0 0-15-15Z"></path></svg><svg viewBox="0 0 60 60" fill="none" id="sprite-phone"><mask id="sprite-phone_0" fill="#fff"><path d="M18.06 59.49a18.1 18.1 0 0 1-12.66-5.24.9.9 0 0 1-.28-.67c0-.26.1-.5.28-.69l15.7-15.78a.96.96 0 0 1 1.09-.18l3.62 1.71c.83.4 1.81.22 2.47-.43l9.79-9.78a2.2 2.2 0 0 0 .43-2.48l-1.72-3.63a.96.96 0 0 1 .19-1.09l15.73-15.74a.9.9 0 0 1 .68-.28c.25 0 .5.1.68.28 7.01 7.18 7.03 18.27.06 25.24l-23.5 23.5a17.64 17.64 0 0 1-12.56 5.26Zm-11.33-5.92a16.35 16.35 0 0 0 22.84-.32l23.5-23.5c6.32-6.3 6.39-16.26.28-22.88l-15.17 15.15 1.58 3.33a3.58 3.58 0 0 1-.72 4.1l-9.79 9.78a3.63 3.63 0 0 1-4.09.71l-3.33-1.57-15.1 15.2Zm14.83-15.36c0 .02 0 .02 0 0Zm-18.1 13.71a.94.94 0 0 1-.68-.27l-.5-.5a5.49 5.49 0 0 1 0-7.81l8.3-8.3a5.55 5.55 0 0 1 6.28-1.09l2.1.99c.3.14.5.4.54.7a.9.9 0 0 1-.28.83l-15.1 15.18a.94.94 0 0 1-.66.27Zm8.12-15.88-8.3 8.3a4.08 4.08 0 0 0 0 5.8l.18.18 14.28-14.37-1.5-.7a4.05 4.05 0 0 0-4.66.79Zm5.15-8.51a.7.7 0 0 1-.71-.72 9.68 9.68 0 0 1 9.67-9.67c.4 0 .72.31.72.71a.7.7 0 0 1-.72.72 8.24 8.24 0 0 0-8.24 8.24.7.7 0 0 1-.72.72Zm-5.1 0a.7.7 0 0 1-.72-.72 14.8 14.8 0 0 1 14.78-14.78c.4 0 .72.32.72.72a.7.7 0 0 1-.72.71c-7.37 0-13.35 6-13.35 13.35 0 .4-.33.72-.71.72Zm-5.13 0a.7.7 0 0 1-.71-.72c0-10.97 8.93-19.9 19.9-19.9.4 0 .72.31.72.71a.7.7 0 0 1-.72.72 18.49 18.49 0 0 0-18.47 18.47.7.7 0 0 1-.72.72Zm29.12-7.87c-.06 0-.11 0-.17-.02a.99.99 0 0 1-.7-.53l-.99-2.09c-1-2.1-.56-4.63 1.09-6.28l8.3-8.3a5.54 5.54 0 0 1 7.82 0l.45.46c.17.17.27.42.27.67 0 .26-.1.5-.27.7l-15.14 15.11a.92.92 0 0 1-.66.28Zm-.56-3.25.7 1.47 14.33-14.32-.12-.11a4.11 4.11 0 0 0-5.8 0l-8.3 8.3a4.13 4.13 0 0 0-.8 4.66Zm15.35-12.5Z"></path></mask><path d="m5.4 54.25 1.4-1.43-.02-.02-.02-.02-1.36 1.47Zm0-1.36 1.42 1.42-1.42-1.42Zm15.7-15.78-1.42-1.41 1.42 1.41Zm1.09-.18-.87 1.8.87-1.8Zm3.62 1.71.86-1.8-.86 1.8Zm2.47-.43 1.4 1.43.01-.01-1.41-1.42Zm9.79-9.78-1.42-1.42 1.42 1.42Zm.43-2.48 1.8-.84v-.01l-1.8.85Zm-1.72-3.63 1.8-.86-1.8.86Zm.19-1.09 1.4 1.41-1.4-1.41Zm15.73-15.74 1.42 1.42.03-.03.02-.03-1.47-1.36Zm1.36 0 1.43-1.4-.01-.01-1.42 1.41Zm.06 25.24 1.41 1.42-1.41-1.42Zm-23.5 23.5-1.42-1.42 1.41 1.41Zm-23.89-.66-1.42-1.41-1.46 1.47 1.53 1.4 1.35-1.46Zm22.84-.32-1.42-1.41 1.42 1.41Zm23.5-23.5 1.42 1.42-1.41-1.41Zm.28-22.88 1.47-1.36-1.41-1.53-1.48 1.47 1.42 1.42Zm-15.17 15.15-1.41-1.42-1 1 .6 1.27 1.81-.85Zm1.58 3.33-1.81.85v.02l1.8-.87Zm-.72 4.1-1.4-1.43h-.01l1.41 1.42Zm-9.79 9.78-1.41-1.41 1.41 1.4Zm-4.09.71-.85 1.81.85-1.8Zm-3.33-1.57.85-1.8-1.28-.61-1 1 1.43 1.41Zm-19.05 13.28-1.41 1.41 1.41-1.41Zm-.5-.5 1.42-1.42-1.42 1.42Zm0-7.81 1.42 1.41-1.42-1.41Zm14.58-9.39-.86 1.8.01.01.85-1.81Zm2.1.99.9-1.8h-.02l-.02-.01-.85 1.8Zm.54.7-1.98.28v.05l.01.04 1.97-.37Zm-.28.83-1.36-1.46-.03.02-.02.03 1.41 1.4Zm-15.1 15.18 1.42 1.41-1.41-1.41Zm7.46-15.61 1.42 1.41-1.42-1.41Zm-8.3 8.3-1.4-1.42 1.4 1.42Zm0 5.8-1.4 1.42 1.4-1.41Zm.18.18-1.42 1.41 1.42 1.42 1.42-1.42-1.42-1.41Zm14.28-14.37 1.41 1.41 2-2-2.56-1.22-.85 1.81Zm-1.5-.7-.87 1.8h.01l.02.01.85-1.8Zm19.2-15.6.5-1.95-.06-.01-.06-.01-.37 1.96Zm-.7-.54-1.8.86 1.8-.86Zm-.98-2.09 1.8-.85-1.8.85Zm1.09-6.28-1.42-1.41 1.42 1.41Zm8.3-8.3 1.41 1.42-1.41-1.42Zm7.82 0 1.44-1.39h-.01l-.01-.02-1.42 1.41Zm.45.46-1.44 1.4h.01l.01.02 1.42-1.42Zm0 1.36 1.4 1.42.04-.03.03-.03-1.47-1.36Zm-15.14 15.12-1.42-1.41-.03.03-.03.03 1.48 1.35Zm-1.22-2.97 1.8-.86-1.8.86Zm.7 1.47-1.8.86 1.21 2.56 2-2-1.4-1.42Zm14.33-14.32 1.4 1.41 1.42-1.41-1.41-1.41-1.41 1.41Zm-.12-.11-1.41 1.41 1.41-1.41Zm-5.8 0-1.42-1.42 1.41 1.42Zm-8.3 8.3-1.42-1.42 1.41 1.41Zm-17.8 45.74a16.1 16.1 0 0 1-11.27-4.67l-2.8 2.86a20.1 20.1 0 0 0 14.06 5.8v-4Zm-11.31-4.7c.25.23.36.53.36.79h-4c0 .78.3 1.57.93 2.14l2.7-2.94Zm.36.79c0 .28-.12.54-.3.73l-2.83-2.83a2.96 2.96 0 0 0-.87 2.1h4Zm-.3.72 15.7-15.78-2.84-2.82-15.7 15.78 2.84 2.82Zm15.7-15.77c-.33.32-.8.4-1.2.2l1.73-3.6a2.96 2.96 0 0 0-3.37.57l2.83 2.83Zm-1.2.2 3.63 1.72 1.71-3.61-3.62-1.72-1.71 3.61Zm3.62 1.71c1.62.79 3.51.4 4.74-.8l-2.8-2.86a.24.24 0 0 1-.12.07h-.09l-1.73 3.6Zm4.75-.81 9.8-9.79-2.84-2.83-9.78 9.79 2.82 2.83Zm9.8-9.79a4.2 4.2 0 0 0 .82-4.73l-3.63 1.69a.2.2 0 0 1 .02.12.19.19 0 0 1-.05.1l2.83 2.82Zm.81-4.74-1.71-3.64-3.62 1.71 1.72 3.64 3.61-1.71Zm-1.72-3.65c.2.4.12.88-.2 1.2l-2.83-2.83a2.93 2.93 0 0 0-.57 3.36l3.6-1.73Zm-.2 1.2 15.74-15.74-2.83-2.83-15.74 15.74 2.83 2.82Zm15.8-15.8a1.1 1.1 0 0 1-.8.36v-4c-.78 0-1.57.3-2.15.93l2.94 2.7Zm-.8.36c-.28 0-.54-.12-.73-.3l2.83-2.83a2.96 2.96 0 0 0-2.1-.87v4Zm-.75-.32c6.27 6.42 6.25 16.25.08 22.43l2.82 2.82c7.77-7.76 7.72-20.1-.04-28.05l-2.86 2.8Zm.08 22.43-23.51 23.49 2.83 2.83 23.5-23.5-2.82-2.82Zm-23.51 23.5a15.64 15.64 0 0 1-11.14 4.67v4c5.05 0 10.08-1.95 13.97-5.86l-2.83-2.82Zm-23.82 2.21a18.35 18.35 0 0 0 25.6-.37l-2.83-2.82a14.35 14.35 0 0 1-20.06.26l-2.71 2.93Zm25.6-.36 23.5-23.5-2.82-2.83-23.5 23.5 2.82 2.83Zm23.51-23.5c7.1-7.1 7.14-18.27.33-25.66l-2.94 2.71c5.4 5.86 5.3 14.6-.22 20.12l2.83 2.83Zm-2.56-25.72-15.16 15.15 2.82 2.83 15.17-15.15-2.83-2.83Zm-15.56 17.42 1.58 3.33 3.61-1.7-1.57-3.34-3.62 1.71Zm1.58 3.35c.29.6.17 1.33-.32 1.8l2.81 2.85a5.58 5.58 0 0 0 1.12-6.38l-3.6 1.73Zm-.32 1.8-9.8 9.8 2.84 2.82 9.78-9.78-2.82-2.83Zm-9.8 9.8c-.47.47-1.2.6-1.82.31l-1.7 3.63c2.14 1 4.69.55 6.36-1.12l-2.83-2.83Zm-1.81.32-3.34-1.58-1.7 3.62 3.33 1.57 1.7-3.61Zm-5.61-1.18-15.1 15.2 2.84 2.82 15.1-15.2-2.84-2.82Zm-.85 1.25v.01h4-4 4-4Zm-16.1 11.71c.22 0 .5.08.74.31l-2.83 2.83c.6.6 1.37.86 2.09.86v-4Zm.74.31-.5-.5-2.83 2.83.5.5 2.83-2.83Zm-.5-.5a3.49 3.49 0 0 1-1.03-2.49h-4c0 2 .78 3.9 2.2 5.32l2.83-2.83Zm-1.03-2.49c0-.94.36-1.82 1.03-2.49l-2.83-2.83a7.49 7.49 0 0 0-2.2 5.32h4Zm1.03-2.49 8.3-8.3-2.83-2.83-8.3 8.3 2.83 2.83Zm8.3-8.3a3.55 3.55 0 0 1 4-.7l1.72-3.6a7.55 7.55 0 0 0-8.55 1.47l2.83 2.83Zm4.01-.69 2.1.99 1.7-3.62-2.1-1-1.7 3.63Zm2.06.97c-.23-.12-.5-.38-.55-.8l3.96-.57a2.94 2.94 0 0 0-1.62-2.21l-1.79 3.58Zm-.54-.72a1.1 1.1 0 0 1 .33-1l2.73 2.92a2.9 2.9 0 0 0 .87-2.67l-3.93.75Zm.28-.95-15.1 15.18 2.84 2.82 15.1-15.18-2.84-2.82Zm-15.1 15.17c.23-.23.52-.31.75-.31v4c.71 0 1.48-.26 2.08-.86l-2.83-2.83Zm7.46-15.6-8.3 8.3 2.83 2.82 8.3-8.3-2.83-2.83Zm-8.3 8.3a6.08 6.08 0 0 0-1.79 4.31h4c0-.57.22-1.1.62-1.49l-2.83-2.83Zm-1.79 4.31c0 1.63.64 3.17 1.8 4.32l2.82-2.83c-.4-.4-.62-.92-.62-1.49h-4Zm1.8 4.32.16.17 2.83-2.83-.17-.17-2.83 2.83Zm3 .17 14.27-14.37-2.83-2.82-14.28 14.37 2.84 2.82Zm13.7-17.59-1.48-.7-1.7 3.62 1.48.7 1.7-3.62Zm-1.45-.68a6.05 6.05 0 0 0-6.97 1.17l2.85 2.81a2.05 2.05 0 0 1 2.36-.4l1.76-3.58Zm-.4-7.93c.7 0 1.29.58 1.29 1.28h-4a2.7 2.7 0 0 0 2.71 2.72v-4Zm1.29 1.28a7.68 7.68 0 0 1 7.67-7.67v-4a11.68 11.68 0 0 0-11.67 11.67h4Zm7.67-7.67a1.3 1.3 0 0 1-1.28-1.29h4a2.7 2.7 0 0 0-2.72-2.71v4Zm-1.28-1.29c0-.7.58-1.28 1.28-1.28v4a2.7 2.7 0 0 0 2.72-2.72h-4Zm1.28-1.28a10.24 10.24 0 0 0-10.24 10.24h4c0-3.45 2.8-6.24 6.24-6.24v-4Zm-10.24 10.24c0-.7.58-1.28 1.28-1.28v4a2.7 2.7 0 0 0 2.72-2.72h-4Zm-3.82-1.28c.7 0 1.28.58 1.28 1.28h-4a2.7 2.7 0 0 0 2.72 2.72v-4Zm1.28 1.28a12.8 12.8 0 0 1 12.78-12.78v-4a16.8 16.8 0 0 0-16.78 16.78h4Zm12.78-12.78a1.3 1.3 0 0 1-1.28-1.28h4a2.7 2.7 0 0 0-2.72-2.72v4Zm-1.28-1.28c0-.7.58-1.29 1.28-1.29v4a2.7 2.7 0 0 0 2.72-2.71h-4Zm1.28-1.29c-8.47 0-15.35 6.9-15.35 15.35h4c0-6.25 5.09-11.35 11.35-11.35v-4Zm-15.35 15.35c0-.73.6-1.28 1.29-1.28v4a2.72 2.72 0 0 0 2.71-2.72h-4Zm-3.84-1.28c.7 0 1.29.58 1.29 1.28h-4a2.7 2.7 0 0 0 2.71 2.72v-4Zm1.29 1.28c0-9.87 8.03-17.9 17.9-17.9v-4a21.92 21.92 0 0 0-21.9 21.9h4Zm17.9-17.9a1.3 1.3 0 0 1-1.28-1.29h4a2.7 2.7 0 0 0-2.72-2.71v4Zm-1.28-1.29c0-.7.58-1.28 1.28-1.28v4a2.7 2.7 0 0 0 2.72-2.72h-4Zm1.28-1.28a20.49 20.49 0 0 0-20.47 20.47h4a16.5 16.5 0 0 1 16.47-16.47v-4Zm-20.47 20.47c0-.7.58-1.28 1.28-1.28v4a2.7 2.7 0 0 0 2.72-2.72h-4Zm30.4-9.15h.04c.05 0 .15.01.27.04l-.97 3.88c.34.09.64.08.66.08v-4Zm.2.02a1.02 1.02 0 0 1 .73.58l-3.61 1.7a2.99 2.99 0 0 0 2.13 1.65l.75-3.93Zm.74.58-1-2.1-3.6 1.72.98 2.09 3.62-1.71Zm-1-2.1a3.55 3.55 0 0 1 .7-4l-2.83-2.83a7.55 7.55 0 0 0-1.48 8.55l3.62-1.72Zm.7-4 8.3-8.3-2.83-2.83-8.3 8.3 2.83 2.83Zm8.3-8.3a3.54 3.54 0 0 1 5 0l2.83-2.83a7.54 7.54 0 0 0-10.66 0l2.83 2.83Zm4.98-.02.44.45 2.87-2.78-.44-.46-2.87 2.79Zm.46.48a1.05 1.05 0 0 1-.31-.75h4c0-.76-.3-1.52-.86-2.08l-2.83 2.83Zm-.31-.75c0-.26.1-.5.26-.67l2.94 2.72a3 3 0 0 0 .8-2.05h-4Zm.31-.72-15.14 15.12 2.83 2.83 15.14-15.12-2.83-2.83Zm-15.2 15.18c.16-.16.31-.25.43-.3a1 1 0 0 1 .39-.07v4c.72 0 1.54-.28 2.13-.92l-2.95-2.7Zm-1.54-.76.7 1.47 3.6-1.72-.7-1.47-3.6 1.72Zm3.92 2.03 14.32-14.33-2.83-2.82-14.32 14.32 2.83 2.83Zm14.32-17.15-.12-.12-2.82 2.83.11.11 2.83-2.82Zm-.12-.12a6.11 6.11 0 0 0-8.63 0l2.83 2.83a2.11 2.11 0 0 1 2.98 0l2.82-2.83Zm-8.63 0-8.3 8.3 2.83 2.83 8.3-8.3-2.83-2.83Zm-8.3 8.3a6.13 6.13 0 0 0-1.2 6.94l3.62-1.72a2.13 2.13 0 0 1 .42-2.4l-2.85-2.81Zm13.96-6.43v.01h4-4 4-4Z" fill="#80B840" mask="url(#sprite-phone_0)"></path></svg><svg viewBox="0 0 22 22" id="sprite-tg"><path fill-rule="evenodd" clip-rule="evenodd" d="M22 12a10 10 0 1 1-20 0 10 10 0 0 1 20 0Zm-9.64-2.62a394 394 0 0 0-5.83 2.51c-.48.2-.72.38-.75.56-.04.3.35.42.86.58l.22.07c.51.17 1.2.36 1.56.37.32 0 .68-.12 1.08-.4 2.73-1.84 4.13-2.77 4.22-2.79.06-.01.15-.03.2.02.07.06.06.15.05.18a28.2 28.2 0 0 1-2.3 2.27l-.45.42a8.8 8.8 0 0 1-.24.23c-.47.46-.83.8.02 1.36l1.06.72 1.17.78.34.24c.42.3.79.56 1.25.52.27-.03.54-.28.68-1.03.33-1.77.98-5.6 1.14-7.19 0-.14 0-.32-.02-.4a.42.42 0 0 0-.14-.26.66.66 0 0 0-.4-.12c-.37 0-.94.2-3.72 1.36Z"></path></svg><svg viewBox="0 0 100 100" id="sprite-vk"><path d="M48.88 0a48.88 48.88 0 1 0 0 97.75 48.88 48.88 0 0 0 0-97.75zm24.79 54.16c2.27 2.23 4.68 4.32 6.73 6.78.9 1.08 1.76 2.2 2.41 3.47.93 1.8.09 3.77-1.52 3.88h-10.02c-2.58.21-4.64-.83-6.37-2.6-1.39-1.4-2.67-2.91-4-4.37a9.36 9.36 0 0 0-1.81-1.6c-1.37-.9-2.55-.62-3.33.8-.8 1.46-.98 3.07-1.06 4.68-.1 2.36-.82 2.98-3.19 3.09-5.06.24-9.86-.53-14.33-3.08-3.94-2.25-6.98-5.43-9.64-9.03-5.17-7.01-9.13-14.7-12.7-22.62-.8-1.79-.2-2.74 1.76-2.78 3.27-.06 6.54-.05 9.8 0 1.33.02 2.21.78 2.72 2.04a60.84 60.84 0 0 0 6.65 12.3 10.53 10.53 0 0 0 2.51 2.77c1.16.8 2.04.53 2.6-.76.34-.83.5-1.7.57-2.59a38.6 38.6 0 0 0-.16-9.05c-.28-1.88-1.34-3.1-3.22-3.45-.95-.18-.81-.54-.35-1.08.81-.95 1.57-1.53 3.08-1.53h11.31c1.78.35 2.18 1.15 2.42 2.94l.01 12.57c-.02.7.35 2.76 1.6 3.21 1 .33 1.66-.47 2.26-1.1 2.71-2.88 4.65-6.28 6.38-9.8a65.87 65.87 0 0 0 2.06-4.76c.48-1.19 1.22-1.77 2.56-1.75l10.9.01c.31 0 .64 0 .96.06 1.83.31 2.34 1.1 1.77 2.9-.9 2.8-2.63 5.15-4.33 7.5-1.82 2.52-3.76 4.95-5.56 7.47-1.66 2.31-1.53 3.48.53 5.48z"></path></svg></svg>