<svg viewBox="0 0 88 87" fill="none" xmlns="http://www.w3.org/2000/svg"><g clip-path="url(#a)"><path d="M0 75.78c0 6.2 5.08 11.22 11.35 11.22h65.3c6.27 0 11.35-5.02 11.35-11.22v-64.56c0-6.2-5.08-11.22-11.35-11.22h-65.3a11.28 11.28 0 0 0-11.35 11.22v64.56Z" fill="#563D7C"/><path d="M36.5 38.48v-12.32h10.96c1.05 0 2.05.09 3.02.26a7.6 7.6 0 0 1 2.58.92 4.94 4.94 0 0 1 1.79 1.85c.45.78.67 1.8.67 3.02 0 2.22-.67 3.81-2.01 4.8a8.49 8.49 0 0 1-5.15 1.47h-11.87Zm-11.72-21.32v52.68h25.82c2.38 0 4.7-.3 6.97-.89 2.27-.59 4.28-1.5 6.05-2.73a13.5 13.5 0 0 0 4.21-4.76 14.36 14.36 0 0 0 1.57-6.9c0-3.29-.8-6.1-2.42-8.44-1.62-2.34-4.07-3.97-7.36-4.9a13.25 13.25 0 0 0 5.42-4.36 11.5 11.5 0 0 0 1.82-6.64 14 14 0 0 0-1.23-6.2 10.16 10.16 0 0 0-3.47-4.02c-1.49-1-3.28-1.73-5.37-2.17-2.09-.45-4.4-.67-6.94-.67h-25.07Zm11.71 43.68v-14.46h12.76c2.54 0 4.58.57 6.12 1.73 1.54 1.16 2.32 3.09 2.32 5.8 0 1.37-.24 2.5-.71 3.39a5.59 5.59 0 0 1-1.9 2.1c-.8.52-1.72.88-2.77 1.1a15.2 15.2 0 0 1-3.28.34h-12.54Z" fill="#fff"/></g><defs><clipPath id="a"><path fill="#fff" d="M0 0h88v87h-88z"/></clipPath></defs></svg>