<svg viewBox="0 0 120 120" fill="none" xmlns="http://www.w3.org/2000/svg"><path d="M67.36 119.75a8.94 8.94 0 0 1-4.1-1.84 3.62 3.62 0 0 1-1-2.42c0-.92.47-2.21 1.22-3.5.45-.72.8-1.5 1.05-2.32.16-.57.49-1.49.74-2.08l.45-1.07.12-7.16c.06-3.97.17-7.64.27-8.2.26-1.65.69-3.25 1.25-4.81l.43-1.04-.62-.37c-.57-.35-1.04-.84-2.9-3.05-2.28-2.7-5.29-4.18-9.55-4.69a82.18 82.18 0 0 0-4.2-.29c-6.25-.29-9.82-1.6-13.04-4.76-2.4-2.37-3.65-5.12-4.16-9.18-.68-5.5-1.45-8.3-2.85-10.59-.35-.56-.75-1.1-1.2-1.58l-.56-.57-1.25.8c-.68.45-1.64 1.02-2.11 1.27a42.07 42.07 0 0 0-4.47 2.86 89.43 89.43 0 0 0-9.4 7.8c-.94.94-1.42 1.35-1.64 1.32-1.42-.22-.33-6.4 2-11.04 2.96-6 7.96-11.52 13.74-15.26 4.75-3.06 12.43-7.28 15.98-8.77a184.9 184.9 0 0 1 20.06-7.01 8.45 8.45 0 0 0 2.38-.96 5.88 5.88 0 0 1 3.4-1.15c1.03-.02 1.13-.04 2.13-.7 1.17-.76 1.52-.8 2.7-.4l.75.28.94-.64.94-.63 1.34.02a4.5 4.5 0 0 0 1.96-.21c.56-.26.58-.3.74-1.23.35-2.04.39-3.05.18-4.28-.28-1.62-.31-7.91-.04-9.15.3-1.32.49-1.6 1.48-2.08 1.49-.73 2.6-.94 5.16-.94 3.12 0 4.7.43 5.88 1.56 1.05 1.02 1.23 3.4.68 8.99a33.37 33.37 0 0 0-.27 6.23c.04 1.34.13 2.61.17 2.79.08.33.16.35 1.3.37 1.1.02 1.3.08 2.36.63 1.01.53 1.78 1.17 1.93 1.64.02.1.2.1.5 0 .61-.18 1.14.02 1.57.55.26.33.41.39 1 .39.8 0 1.1.2 1.76 1.17.3.44.73.78 1.23 1a8.34 8.34 0 0 1 3.14 3.28 8.07 8.07 0 0 1 .51 5.76c-.2.7-.2.72.22 1.4a6.75 6.75 0 0 1 .82 4.79l-.2.9.59.59c2.9 2.9 2.47 7.65-1.08 11.89-.4.48-.73 1.02-1 1.58a11.57 11.57 0 0 1-2.47 4.14l-1.04 1.06h-1.05a8.57 8.57 0 0 1-3.44-.83c-.37-.19-.39-.19-.31.04.23.86.82 4.36 1.02 6.3.3 2.96.2 7.28-.2 9.13-.3 1.38-.8 2.7-1.48 3.93-.4.63-.41.76-.34 1.52.12 1.07-.13 2.88-.56 4.06a13.6 13.6 0 0 0-.84 2.74c-.1.6-.1.6.33.6.56 0 .88.34.88 1 0 .3-.26 1.87-.57 3.5-.86 4.55-.92 5.05-.92 9.47-.02 4.55-.02 4.5 1.02 5.19l2.32 1.5c2 1.33 4.14 2.43 6.39 3.29 3.26 1.28 3.71 1.61 3.71 2.71 0 .49-.1.66-.5 1.05-1.25 1.21-3.72 1.49-8.68.96a85.07 85.07 0 0 0-7.75-.37c-6.84-.1-7.84-.33-8.73-2.03-.51-.98-.41-2.25.29-4.34.31-.92.58-1.86.82-2.81.47-2.27.16-4.96-.94-8l-.94-2.6c-.91-2.64-1.42-7.47-.87-8.56.1-.21.27-.26.74-.24l.58.06.5-1.01c.36-.8.77-1.33 1.89-2.44l1.42-1.43-.08-.92c-.06-.88-1.2-5.14-1.37-5.12-.06 0-.37.44-.72.98a18.74 18.74 0 0 1-3.83 4c-.47.31-.86.69-.86.8a5.15 5.15 0 0 1-1.01 2.29c-.53.7-.57.82-.5 1.44.14.92-.15 3.87-.5 5.41a17.51 17.51 0 0 1-1.29 3.32c-1.34 2.8-2.36 5.3-2.61 6.45a29 29 0 0 0-.36 3.36 19.6 19.6 0 0 1-.29 2.9c-.14.36-.14.66-.02 1.22.1.41.16 1.33.14 2.05-.02 1 .06 1.65.35 2.81.5 2 .6 3.25.37 4-.16.46-.31.64-.84.9-1.17.6-4.5.93-6.29.62Zm4.75-1.6c.68-.2 1.27-.79 1.27-1.32 0-.23-.2-.91-.43-1.52a27.55 27.55 0 0 1-1.27-4.7c0-.26.02-.28.4-.06l.44.23v-.55c-.07-.5-.18-1-.34-1.48-.37-1.11-.4-1.13-2.77-1.27l-1.6-.08-.59.57c-.32.33-.6.7-.84 1.1-.25.5-.35 1.26-.2 1.44.04.05.44 0 .87-.1.25-.08.51-.12.78-.14 0 .02-.44.37-.98.75-2.34 1.75-3.16 2.83-3.16 4.2 0 1.42 1.34 2.53 3.45 2.87 1.45.21 4.26.27 4.97.06Zm31.78-2.33c.58-.7.5-1.43-.24-2.25-.43-.43-.92-.8-1.47-1.1a20.1 20.1 0 0 1-1.64-.97c-.99-.64-2-1.24-3.05-1.8-.9-.48-1.77-1-2.63-1.53l-.36-.28v-5.37c0-5.29-.02-5.37-.29-5.29-1.37.37-3.63.55-6.5.49l-3.1-.04.44 1.1c.84 2.06 1.28 4.84 1.28 8.02a5.9 5.9 0 0 1-.38 2.46l-.43 1.23c-.06.18.16.32.96.55.58.18 1.44.35 1.93.41l.9.1-.1.9c-.1 1.01.03 2.09.28 2.42.16.2.74.27 3.46.39 2.05.1 4.28.31 6.03.57 1.52.23 3.17.43 3.65.43.83.02.9-.02 1.25-.43v-.01Zm-31.27-9.14c.08-.06.2-1.11.23-2.36.16-3.5.3-4 2.06-7.95 1.44-3.22 2.2-6.23 2.15-8.36l-.04-1.27-.55.53c-1.13 1.13-.35-.65 1-2.23 1.01-1.21 1.37-1.88 1.52-2.95.08-.43.24-.64.9-1.15a16.8 16.8 0 0 0 5.53-7.3c.27-.71.97-3.11 1.56-5.34 1.1-4.12 1.68-5.9 2.21-6.66.2-.29.27-.35.24-.16-.29 1.05-.5 2.12-.67 3.19-.16.95-.45 2.83-.64 4.14-.37 2.68-.76 4.4-1.3 5.72l-.34.9.93 2.42c.98 2.48 1.43 4.28 1.5 6.02l.07.97-.77.16c-1 .18-1.9.74-2.5 1.56-.66.96-1.03 1.75-.85 1.92a20.73 20.73 0 0 0 6.72.45c.97-.04 1.93-.14 2.89-.28.21-.08.43-.5.78-1.62.8-2.55.95-3.45.86-5.25l-.08-1.58.4-.53c.96-1.21 1.7-3.4 2.01-5.96.38-3.12-.3-9.67-1.58-15.3-.6-2.67-.86-4.27-.86-5.44v-1.04l-.95.1c-3.44.37-7.6.27-10.14-.25a49.3 49.3 0 0 1-5.64-1.65l-.6-.27-.09.68c-.05.37-.11.74-.19 1.13-.12.41-.08.51.64 1.22.9.91 1.18 1.38 1.18 2 0 .4-.21.71-1.31 1.84-.79.84-1.66 1.6-2.6 2.25l-1.27.86-.55 1.9c-1.95 6.93-2.32 13.23-1.03 17.74l.3 1.14-.62.78c-2.34 2.94-3.73 5.2-3.94 6.44a37.8 37.8 0 0 1-.43 1.84c-.51 1.94-.9 4.77-1.08 7.83-.12 2.57-.29 5.14-.5 7.7l-.1.76.98.3a8.86 8.86 0 0 0 4.59.41h-.03Zm18.96-10.74c1.53-.1 2.91-.34 3.19-.57.11-.08.25-.49.29-.9l.1-.74-1.22.27c-.95.2-1.9.31-2.87.4-2.3.09-4.63.03-6.91-.2-.76-.12-.76-.12-.53.87.2.75.23.78 2.23.92 1.32.12 3.18.1 5.72-.06Zm-1.27-3.4c2-.18 4.47-.6 4.96-.86.16-.08.3-.37.36-.7l.17-1.04.1-.49-.49.1c-2.17.45-3.8.59-7.09.59-3.2 0-3.57-.02-4.41-.32a3.08 3.08 0 0 0-1.02-.23c-.14.08-.16 1.19-.04 1.97.08.47.16.55.63.68 1.48.41 3.98.5 6.83.28v.02Zm-36.25-17.62c5-1.44 11.55-5.68 16.9-11 1.74-1.73 1.95-1.97 2.18-2.75l.31-1c.04-.07-.27-.2-.68-.3-1.07-.26-1.9-.88-1.9-1.45 0-.33-.19-.66-.75-1.27-.92-1.03-1.15-1.48-1.25-2.48l-.08-.8-1.1-.78a57.28 57.28 0 0 0-5.13-2.83c-1.77-.87-3.5-1.8-5.2-2.81a10.25 10.25 0 0 1-4-4.73c-.14-.37-.31-.68-.37-.68-.16 0-4.55 4.23-6.43 6.23-4.63 4.88-7.81 9.12-9.83 13.04a31 31 0 0 0-1.2 2.56l-.3.78.35 1.3c.22.71.67 1.86 1.02 2.55a10.44 10.44 0 0 0 5.12 5.08c2.6 1.28 4.9 1.73 8.75 1.67 2.07-.01 2.68-.07 3.59-.35v.02Zm-39.45-17.13c3.28-2.9 7.81-6.1 13.36-9.4 3.64-2.16 17.68-9.2 24.14-12.06 1.18-.53 2.23-1.02 2.35-1.08.11-.08.45-.91.76-1.85 1.37-4.34 2.05-5.2 4.53-5.76.31-.08.39-.18.39-.49 0-.57.39-1.88.72-2.46.26-.45.26-.47.04-.4l-1.81.52c-11.92 3.44-22.33 8-31.31 13.71-9.6 6.1-15.12 13.4-16.72 22.15l-.12.64 1.18-1.15c.62-.64 1.76-1.7 2.5-2.34l-.01-.03Zm88.38 1.66c.96-.48 2.44-2.73 2.99-4.5a3.9 3.9 0 0 1 .92-1.7 11.49 11.49 0 0 0 2.65-6.51c0-3.1-1.76-4.3-4.31-2.97-.34.16-.6.27-.65.24-.13-.14.59-.84 1.47-1.4 1.15-.75 1.37-1.2 1.37-2.82a6.38 6.38 0 0 0-1.12-3.67c-.35-.53-.48-.88-.43-1.1l.35-1.3a6.7 6.7 0 0 0-.45-5c-1.13-1.92-2.52-2.86-4.45-3.01l-1.13-.08.66.74c1.97 2.13 2.93 4.8 2.54 7.1-.2 1.16-.37 1.4-1.5 1.85l-.67.27.08.9c.13 1.47-.12 2.54-1.05 4.51a9.1 9.1 0 0 0-.78 2c.11.33 1.4.95 2.42 1.2l1 .24-.63.22c-.82.25-1 .62-1 1.97 0 1.23.18 1.74 1.08 3.08.4.59.68 1.2.72 1.55.08.54.06.58-.4.74-.5.14-1.03.23-1.56.25-1.83.12-1.97.18-2.79.96-.74.7-.76.74-.76 1.52 0 1.07.4 3.25.66 3.54a9.56 9.56 0 0 0 2.91 1.4c.63.16 1.29.08 1.86-.21Zm-27.05-1.46a12.44 12.44 0 0 0 2.65-2.68c.34-.48.35-.58.2-1-.28-.62-2.07-2.24-3.07-2.73a7.8 7.8 0 0 0-2.09-.6l-1.23-.16-.76-.96a23.44 23.44 0 0 1-3.71-6.42c-1.1-2.5-2.05-3.97-3.58-5.41a8.35 8.35 0 0 1-1.03-1.08c.08 0 .82.37 1.68.82 1.42.76 1.6.82 2.25.73 2.32-.28 4.37-2.95 5.11-6.7a8.05 8.05 0 0 1 1.1-2.78c.02-.01.92.57 1.97 1.33 2.68 1.9 3.26 2.19 4.79 2.25 1 .04 1.56-.04 3.36-.47 3.83-.94 7.97-1.3 10.48-.98 1.43.2 3.48.83 5 1.55 1.5.7 1.8.74 2.29.3.4-.34.4-.4.4-1.71a8.7 8.7 0 0 0-1.79-5.27 14.8 14.8 0 0 0-3.61-2.5l-1.63-.88c-.72-.43-1.54-.37-3.76.21-2.58.67-3.27.67-6.21-.1-2.5-.62-2.66-.64-5.12-.25-1.31.2-4.6.08-5.69-.21-.55-.16-1.1-.31-1.62-.51a8.57 8.57 0 0 0-4.12-.16c-2.99.53-5.25 2.15-6.07 4.36-.44 1.11-.38 1.64.2 1.99.9.56 2.08 2.1 2.08 2.71 0 .04-.3-.21-.63-.56-.84-.88-1.6-1.28-2.5-1.28a3.13 3.13 0 0 0-2.75 1.82c-.26.69-.48 1.4-.66 2.11-.55 2-1.04 3.05-2.07 4.46-.92 1.27-1.06 1.83-.73 3.26.82 3.6 2.25 5.04 8.2 8.42a58.18 58.18 0 0 1 5.9 3.65c.9.66.92.7.84 1.21-.17 1.17.57 2.44 2.03 3.48.38.25.6.53.6.72 0 .35 1 .84 1.73.84.4 0 .72-.18 1.56-.82Zm24.08-6.59c2.27.08 2.38-.1 1.17-1.5-1.27-1.46-1.62-2.65-1.15-3.96l.2-.5-.8-.4c-.28-.13-.55-.27-.83-.37-.13.53-.27 1.03-.39 1.56a37.6 37.6 0 0 0-.66 5.6c0 .1.2.07.53-.14.47-.28.7-.31 1.93-.28Zm-7.6-.11c1.37-.08 2.78-.18 3.15-.24l.68-.1.08-2.24c.12-3.2.59-5.1 1.97-8.13.98-2.15 1.4-4.02 1.2-5.43-.08-.6-.12-.64-.94-1-1.5-.6-3.07-1.02-4.67-1.27-1.54-.21-6.08-.1-7.78.24-.7.12-1.99.39-2.84.6-2.13.5-3.27.44-4.89-.27a11.7 11.7 0 0 1-3.57-2.25c-.76-.7-.84-.74-1.04-.5-.15.17-.23.7-.29 1.83a6.81 6.81 0 0 1-1.1 3.89c-.16.25-.3.52-.42.8 0 .06.58.75 1.3 1.49 2.5 2.6 3.73 3.26 5.7 3.12.65-.06 1.1-.04 1.1.04a7.1 7.1 0 0 1-1.8 1.42c-.25.14-.3.28-.27.57l.31 2.05c.18 1.18.31 1.72.5 1.88.46.39 2.88 1.64 4.4 2.26 2 .8 3.1 1.1 4.61 1.23 1.88.16 1.92.16 4.61 0Zm-16.15-2.15c.04-.06-.1-1.2-.35-2.5-.31-1.78-.49-2.42-.68-2.6-.14-.12-.86-.63-1.59-1.15a24.67 24.67 0 0 1-2.7-2.25l-1.34-1.33-.72.38-.76.4c.06.31.17.6.3.88.22.47.65 1.62.96 2.56a16.77 16.77 0 0 0 3.09 5.74l.6.8 1.16.18c.64.1 1.29.24 1.46.3.27.1.31.05.4-.57.03-.28.09-.57.17-.84Zm24.75-24.3c1-.1 1.17-.23.74-.68-.27-.27-.9-.3-1.4-.06-.34.16-.42.12-.94-.45-.55-.6-.59-.63-1.28-.55-.62.08-.72.06-.8-.2-.24-.41-.54-.8-.9-1.12-.44-.5-1-.9-1.62-1.16-1.2-.46-1.9-.4-3.05.24-3.34 1.82-3.2 1.8-6.42.98-3.01-.77-5.26-1.54-5.98-2.04-.6-.4-1.9-.86-2.97-1-.8-.11-1.31.07-2.07.69l-.41.33.37.65c.5.9.45.95-.31.29a4.77 4.77 0 0 0-2.42-1.17c-.45 0-1.78.58-1.94.84-.06.07.35.17.9.21a7.9 7.9 0 0 1 1.88.47 9.5 9.5 0 0 0 3.32.9c1.36.13 3.84-.02 4.14-.26.15-.13.58-.15 1.48-.07 1.2.07 1.68.19 4.51.95 1.65.45 2.8.41 4.75-.11.9-.26 2.03-.51 2.5-.57.8-.08.96-.04 2.21.53 2 .9 3.05 1.46 3.63 1.99.59.5.67.5 2.07.39v-.02Zm-11.14-3.41 1.2-.63-.04-1.21c-.02-.84-.06-1.66-.1-2.48l-.1-1.25-1.19.92c-.7.55-1.39.96-1.68 1.02-.86.15-5.1 0-5.49-.22-.52-.38-1.01-.82-1.47-1.29l-1.09-1.11-.02.66c0 .36-.04.96-.12 1.33-.1.7-.1.72.67 1.68.4.53.74 1 .74 1.05 0 .38 5.64 2.14 6.92 2.15.4 0 .92-.17 1.77-.62Zm-2.26-4.44c1.4-.27 2.09-1.29 2.62-3.86.54-2.78.82-7.13.56-8.99-.23-1.68-2.1-2.42-5.68-2.3-2.23.07-3.15.29-3.91.93-.47.4-.47.43-.68 2.28-.4 3.56.2 8.62 1.2 10.51.5.92.93 1.25 1.82 1.4 1.02.18 3.19.18 4.06.03Z" fill="#000"/></svg>