<svg viewBox="0 0 131 131" fill="none" xmlns="http://www.w3.org/2000/svg"><path d="M36.84 56.08c3.82-15.28 13.38-22.92 28.66-22.92 22.92 0 25.8 17.2 37.25 20.06 7.64 1.9 14.33-.96 20.06-8.6-3.82 15.29-13.37 22.93-28.65 22.93-22.93 0-25.8-17.2-37.26-20.06-7.64-1.91-14.32.95-20.06 8.6Zm-28.65 34.4c3.82-15.3 13.37-22.93 28.65-22.93 22.93 0 25.8 17.2 37.26 20.06 7.64 1.9 14.33-.96 20.06-8.6-3.82 15.28-13.38 22.92-28.66 22.92-22.92 0-25.8-17.19-37.25-20.06-7.64-1.9-14.33.96-20.06 8.6Z" fill="#44A8B3"/></svg>