<svg viewBox="0 0 30 30" fill="none" xmlns="http://www.w3.org/2000/svg"><path fill-rule="evenodd" clip-rule="evenodd" d="M15 0a15 15 0 0 0-4.74 29.23c.75.13 1.03-.32 1.03-.71l-.02-2.8c-3.77.7-4.74-.91-5.04-1.76-.17-.43-.9-1.76-1.54-2.12-.53-.28-1.28-.97-.02-.99 1.18-.02 2.02 1.09 2.3 1.54 1.35 2.27 3.51 1.63 4.37 1.23.13-.97.53-1.63.96-2-3.34-.38-6.83-1.67-6.83-7.4 0-1.64.59-2.99 1.54-4.04a5.39 5.39 0 0 1 .15-3.97s1.26-.4 4.13 1.53a13.92 13.92 0 0 1 7.5 0c2.87-1.95 4.12-1.53 4.12-1.53.83 2.06.3 3.6.15 3.97a5.8 5.8 0 0 1 1.54 4.03c0 5.76-3.5 7.03-6.84 7.4.54.48 1 1.38 1 2.78l-.01 4.13c0 .4.28.86 1.03.71a15.03 15.03 0 0 0 10.22-14.23 15 15 0 0 0-15-15Z" fill="#666"/></svg>