<svg xmlns="http://www.w3.org/2000/svg" viewBox="0 0 100 100" xml:space="preserve"><path d="M48.88 0a48.88 48.88 0 1 0 0 97.75 48.88 48.88 0 0 0 0-97.75zm24.79 54.16c2.27 2.23 4.68 4.32 6.73 6.78.9 1.08 1.76 2.2 2.41 3.47.93 1.8.09 3.77-1.52 3.88h-10.02c-2.58.21-4.64-.83-6.37-2.6-1.39-1.4-2.67-2.91-4-4.37a9.36 9.36 0 0 0-1.81-1.6c-1.37-.9-2.55-.62-3.33.8-.8 1.46-.98 3.07-1.06 4.68-.1 2.36-.82 2.98-3.19 3.09-5.06.24-9.86-.53-14.33-3.08-3.94-2.25-6.98-5.43-9.64-9.03-5.17-7.01-9.13-14.7-12.7-22.62-.8-1.79-.2-2.74 1.76-2.78 3.27-.06 6.54-.05 9.8 0 1.33.02 2.21.78 2.72 2.04a60.84 60.84 0 0 0 6.65 12.3 10.53 10.53 0 0 0 2.51 2.77c1.16.8 2.04.53 2.6-.76.34-.83.5-1.7.57-2.59a38.6 38.6 0 0 0-.16-9.05c-.28-1.88-1.34-3.1-3.22-3.45-.95-.18-.81-.54-.35-1.08.81-.95 1.57-1.53 3.08-1.53h11.31c1.78.35 2.18 1.15 2.42 2.94l.01 12.57c-.02.7.35 2.76 1.6 3.21 1 .33 1.66-.47 2.26-1.1 2.71-2.88 4.65-6.28 6.38-9.8a65.87 65.87 0 0 0 2.06-4.76c.48-1.19 1.22-1.77 2.56-1.75l10.9.01c.31 0 .64 0 .96.06 1.83.31 2.34 1.1 1.77 2.9-.9 2.8-2.63 5.15-4.33 7.5-1.82 2.52-3.76 4.95-5.56 7.47-1.66 2.31-1.53 3.48.53 5.48z"/></svg>